# xmcd
# 
# Track frame offsets:
#     150
#     20026
#     35039
#     55244
#     71307
#     94692
#     111488
#     127855
#     144180
#     166810
#     179575
# 
# Disc length: 2681
# 
# Revision: 1
# Processed by: cddbd v1.5.2PL0 Copyright (c) Steve Scherf et al.
# Submitted via: fre:ac v1.1beta1pre4
# 
DISCID=940a770b
DTITLE=Pinehill Project - Tomorrow You're Going
DYEAR=2015
DGENRE=Folk
TTITLE0=Lately
TTITLE1=Wichita
TTITLE2=Open Book
TTITLE3=I Live On A Battlefield
TTITLE4=Farewell To Saint Dolores
TTITLE5=Sweetest Thing
TTITLE6=Making Plans
TTITLE7=Rain Just Falls
TTITLE8=I Know You Rider
TTITLE9=Missing You
TTITLE10=Such Sweet Angels
EXTD=
EXTT0=
EXTT1=
EXTT2=
EXTT3=
EXTT4=
EXTT5=
EXTT6=
EXTT7=
EXTT8=
EXTT9=
EXTT10=
PLAYORDER=
